PathFileType  4	(X/Y/Z) C:\Users\antoi\Documents\MyRepositories\mobilecap\ResultsAnalysis
DataRate	CameraRate	NumFrames	NumMarkers	Units	OrigDataRate	OrigDataStartFrame	OrigNumFrames
100.0	100.0	4	51	mm	100.0	78	311
Frame#	Time	r_knee			r_shank_antsup			r_ankle			r_calc			r_5meta			r_toe			L_knee			L_shank_antsup			L_ankle			L_calc			L_5meta			L_toe			r_sh2			r_sh3			r_sh4			L_sh2			L_sh3			r_thigh1			r_thigh2			r_thigh3			r_thigh4			r_thigh5			L_thigh1			L_thigh2			L_thigh3			L_thigh4			r.ASIS			r.PSIS			L.ASIS			L.PSIS			C7			R_Shoulder			L_Shoulder			R_Sternum			L_Sternum			R_humerus			R_elbow_med			R_elbow_lat			R_forearm			R_wrist_radius			R_wrist_ulna			L_humerus			L_elbow_med			L_elbow_lat			L_forearm			L_wrist_radius			L_wrist_ulna			R_HJC			L_HJC			R_HJC_reg			L_HJC_reg			
		X1	Y1	Z1	X2	Y2	Z2	X3	Y3	Z3	X4	Y4	Z4	X5	Y5	Z5	X6	Y6	Z6	X7	Y7	Z7	X8	Y8	Z8	X9	Y9	Z9	X10	Y10	Z10	X11	Y11	Z11	X12	Y12	Z12	X13	Y13	Z13	X14	Y14	Z14	X15	Y15	Z15	X16	Y16	Z16	X17	Y17	Z17	X18	Y18	Z18	X19	Y19	Z19	X20	Y20	Z20	X21	Y21	Z21	X22	Y22	Z22	X23	Y23	Z23	X24	Y24	Z24	X25	Y25	Z25	X26	Y26	Z26	X27	Y27	Z27	X28	Y28	Z28	X29	Y29	Z29	X30	Y30	Z30	X31	Y31	Z31	X32	Y32	Z32	X33	Y33	Z33	X34	Y34	Z34	X35	Y35	Z35	X36	Y36	Z36	X37	Y37	Z37	X38	Y38	Z38	X39	Y39	Z39	X40	Y40	Z40	X41	Y41	Z41	X42	Y42	Z42	X43	Y43	Z43	X44	Y44	Z44	X45	Y45	Z45	X46	Y46	Z46	X47	Y47	Z47	X48	Y48	Z48	X49	Y49	Z49	X50	Y50	Z50	X51	Y51	Z51	

78	0.77000000	-959.73723	708.34666	-411.46024	-939.86395	632.82411	-416.29864	-1187.78220	408.38393	-421.86402	-1252.47828	385.68539	-467.21066	-1097.03839	348.36041	-393.52766	-1052.58169	359.07567	-446.65370	-958.83139	705.76952	-716.30166	-954.71231	609.79132	-699.50272	-1187.24090	411.64556	-701.78117	-1254.31021	380.48309	-658.32192	-1100.64693	350.82919	-734.44839	-1048.66827	360.38712	-682.65443	-1017.33283	550.29849	-406.32603	-985.12712	685.56543	-380.64869	-1075.46987	604.81359	-379.11005	-1005.92257	667.09303	-744.20824	-1083.72316	571.96933	-751.82585	-1047.83724	937.93624	-367.49478	-982.93867	846.70555	-381.28111	-1072.47126	784.10035	-408.30728	-1141.06500	876.84917	-385.09606	-1024.04913	790.95555	-383.91028	-1066.77154	959.56916	-759.20479	-990.73446	845.20694	-740.84641	-1164.10932	902.25330	-745.96658	-1087.31759	789.10179	-713.19113	-1047.03951	1063.55718	-456.92669	-1220.60973	1187.20718	-518.96801	-1056.41224	1069.84579	-672.34763	-1224.74856	1184.69323	-601.76407	-881.72671	1490.72251	-547.21820	-846.21673	1417.64643	-405.64034	-847.93979	1434.62887	-689.74075	-805.59880	1368.52331	-526.77595	-800.53421	1373.29992	-556.30374	-870.82138	1304.10140	-352.15608	-1034.00612	1147.02919	-326.28200	-985.19931	1144.44140	-279.17818	-930.72155	1065.90146	-290.44899	-895.78943	931.64029	-321.58834	-921.32741	920.86091	-294.48496	-876.80306	1341.33250	-762.80077	-1015.77717	1158.13835	-791.28341	-968.17829	1169.27506	-837.46978	-917.13859	1072.98589	-834.22484	-879.02983	955.25330	-810.76609	-911.87557	942.36589	-831.05543	-1159.51452	1023.51511	-457.27223	-1166.24714	1029.17748	-664.59288	-1140.78821	1043.87175	-480.87132	-1147.89238	1039.55584	-623.00178	
79	0.78000000	-953.73060	704.96718	-412.04299	-934.71773	629.40232	-417.30954	-1186.53548	409.54385	-422.57316	-1251.49664	387.55289	-467.57675	-1096.75187	348.48278	-393.72955	-1052.00574	358.81539	-446.95568	-953.37848	702.38195	-716.52703	-950.42504	606.46559	-698.97405	-1186.16289	412.49752	-702.02640	-1253.67820	381.77168	-658.22926	-1100.38763	350.75838	-734.44844	-1048.30039	359.96277	-682.80033	-1013.35835	547.98413	-407.28650	-979.31197	682.71437	-381.54042	-1070.80426	603.34217	-379.91050	-1000.71526	664.21486	-743.73818	-1079.69065	570.29785	-751.81777	-1044.28073	933.37242	-368.17884	-978.50226	842.89906	-381.73685	-1067.31709	779.19669	-408.85007	-1137.00271	871.33956	-385.58327	-1018.99296	786.55061	-384.44657	-1063.88589	954.84153	-758.78119	-986.88563	841.29749	-740.48378	-1160.82234	896.94470	-746.12579	-1083.05475	783.95892	-711.84083	-1044.98388	1058.37970	-456.83155	-1218.89720	1181.29570	-518.98430	-1054.69647	1064.64994	-673.01224	-1223.13197	1178.87231	-601.80354	-880.50501	1485.34883	-547.43131	-843.74797	1412.28070	-406.56060	-846.52823	1429.25304	-689.73518	-804.22582	1362.88901	-528.06700	-799.61064	1366.76471	-557.15824	-863.26284	1298.60887	-353.29325	-1015.67646	1131.54645	-326.67054	-966.58644	1132.69292	-279.39438	-906.61419	1057.87391	-292.65940	-862.69573	926.98732	-325.98584	-886.82503	914.15384	-298.24194	-870.70423	1335.10506	-762.20965	-998.41699	1143.07841	-792.43897	-950.12799	1156.96305	-836.22229	-891.66715	1064.21373	-830.42746	-846.08160	950.05100	-803.74650	-877.75499	934.66633	-824.95224	-1157.25661	1017.89705	-457.41671	-1164.28981	1023.57353	-664.72711	-1138.79557	1038.03940	-480.80830	-1146.08964	1033.86592	-623.44374	
80	0.79000000	-948.10863	701.82436	-412.52257	-929.90783	626.26252	-418.19804	-1185.31043	410.84420	-423.02220	-1250.44165	389.35930	-467.81970	-1096.42879	348.59203	-393.82328	-1051.48525	358.59761	-447.14626	-948.00594	699.20094	-717.02142	-946.37152	603.30036	-698.39072	-1185.19629	413.31849	-702.10547	-1253.10171	383.06182	-658.06144	-1100.21105	350.72467	-734.41432	-1047.96315	359.53126	-682.92754	-1009.64886	545.82107	-408.25026	-973.89473	679.92900	-382.42762	-1066.74452	602.32901	-380.52770	-995.76355	661.60636	-743.53579	-1075.88975	568.60454	-751.49104	-1041.08479	928.82182	-368.53203	-974.16615	839.11220	-382.37578	-1062.45387	774.57140	-409.51660	-1133.02277	865.99623	-386.42744	-1014.14052	782.39075	-385.18440	-1060.86494	950.48176	-758.74189	-982.97151	837.60403	-740.03561	-1157.50658	891.92096	-745.97470	-1078.67912	779.52993	-711.73444	-1042.58127	1053.53178	-456.77457	-1217.02156	1175.79783	-519.02308	-1052.81934	1059.71433	-673.87741	-1221.39382	1173.50436	-601.84391	-879.21290	1480.51647	-547.74558	-841.06476	1407.60675	-407.63580	-845.04766	1424.61748	-689.84421	-802.92213	1358.08108	-529.27671	-803.22348	1359.10289	-562.58770	-855.60791	1294.25484	-354.34215	-996.33575	1117.81480	-327.27713	-947.49311	1122.68981	-279.53934	-881.98637	1052.35980	-294.52709	-828.93449	925.60422	-330.25781	-851.51152	910.87775	-302.02745	-864.58095	1330.14049	-761.82633	-978.85536	1129.31462	-790.99669	-931.36794	1146.68337	-835.28374	-865.66249	1058.27065	-826.66467	-812.00393	948.38809	-796.56054	-842.38464	930.84956	-818.89727	-1154.74034	1012.67631	-457.58420	-1162.23541	1018.31470	-664.87933	-1136.55967	1032.43011	-480.77197	-1144.12320	1028.46344	-624.02242	
81	0.80000000	-942.81116	698.93153	-413.01817	-925.30163	623.41717	-418.99314	-1183.99199	412.16548	-423.23100	-1249.40036	391.24468	-468.03356	-1096.11152	348.69940	-393.94013	-1050.92169	358.34262	-447.28960	-943.00233	696.28227	-717.39248	-942.55775	600.28566	-697.76422	-1184.22170	414.08563	-701.99698	-1252.51825	384.34319	-657.78600	-1100.02198	350.71263	-734.42872	-1047.62487	359.11774	-683.04974	-1006.13052	543.97138	-409.11913	-969.03864	677.37955	-383.61957	-1062.54981	601.18417	-381.22001	-991.04834	659.31388	-743.62275	-1072.34965	567.06502	-751.10920	-1037.84872	924.58973	-369.23477	-970.04664	835.49614	-383.23151	-1057.78200	770.30272	-410.36399	-1129.18871	861.07620	-387.33546	-1009.57134	778.53252	-385.94100	-1057.69711	946.59943	-758.89777	-979.05713	834.36959	-739.63716	-1154.04775	887.36669	-746.02638	-1074.39304	775.71416	-712.10905	-1040.00306	1048.85007	-457.11325	-1215.00424	1170.82509	-519.14905	-1050.63579	1055.24506	-674.69917	-1219.44482	1168.69153	-601.98592	-877.83236	1476.21295	-548.17356	-838.22308	1403.74639	-408.81601	-843.44651	1420.62420	-689.96494	-801.12900	1354.21061	-530.14747	-804.60801	1353.40313	-566.15414	-847.67084	1291.21587	-355.17538	-976.26423	1106.11875	-327.65243	-927.87851	1114.40845	-279.78212	-857.03969	1049.40987	-296.14315	-794.72041	927.78560	-334.32866	-815.74730	911.23492	-306.07702	-858.38615	1326.40558	-761.69304	-957.05563	1117.15677	-787.29897	-911.96691	1138.44951	-834.25432	-839.23904	1055.34999	-822.95362	-777.34890	950.55468	-789.49583	-805.93939	930.82916	-812.31480	-1152.14501	1007.76367	-458.03354	-1159.99336	1013.63863	-665.30885	-1134.14323	1027.32062	-481.14780	-1141.84015	1023.62216	-624.73440	
